# xmcd CD database file
#
# Track frame offsets:
#	150
#	17864
#	39578
#	69127
#	83336
#	102183
#	113774
#	135495
#	158905
#	183095
#	201252
#
# Disc length: 3004 seconds
#
# Revision: 0
# Processed by: cddbd v1.5.2PL0 Copyright (c) Steve Scherf et al.
# Submitted via: CDex 1.79
#
DISCID=7f0bba0b
DTITLE=Barbara Thompson - Heavenly Bodies 1976
DYEAR=1976
DGENRE=Jazz
TTITLE0=Le Grand Voyage
TTITLE1=Extreme Jonction
TTITLE2=Requiem Pour Deux Pilotes
TTITLE3=Entre Les Trous De La Momoire
TTITLE4=Les Barricades Mysterieuses
TTITLE5=Heavenly Bodies
TTITLE6=Love On The Edge Of Life
TTITLE7=Elysian Fields
TTITLE8=Flights Of Fancy
TTITLE9=Tibetan Sunrise
TTITLE10=Horizons New
EXTD=YEAR: 1976
EXTT0=
EXTT1=
EXTT2=
EXTT3=
EXTT4=
EXTT5=
EXTT6=
EXTT7=
EXTT8=
EXTT9=
EXTT10=
PLAYORDER=
